<svg width="128" height="128" viewBox="0 0 128 128" xmlns="http://www.w3.org/2000/svg">
  <defs>
    <linearGradient id="brainGrad" x1="0%" y1="0%" x2="100%" y2="100%">
      <stop offset="0%" style="stop-color:#4299e1;stop-opacity:1" />
      <stop offset="100%" style="stop-color:#3182ce;stop-opacity:1" />
    </linearGradient>
  </defs>
  
  <!-- Main brain shape -->
  <path d="M64 16c-26.5 0-48 21.5-48 48 0 8 2 15.5 5.5 22l-5 12c-1 2.5 0.5 5.5 3 6.5l12-5c6.5 3.5 14 5.5 22 5.5s15.5-2 22-5.5l12 5c2.5 1 5.5-0.5 6.5-3l-5-12c3.5-6.5 5.5-14 5.5-22 0-26.5-21.5-48-48-48z" 
        fill="url(#brainGrad)" stroke="#2d3748" stroke-width="2"/>
  
  <!-- Brain details -->
  <path d="M40 45c0-8 6-12 14-10s12 8 10 16-6 12-14 10-10-8-10-16z" fill="#e2e8f0" opacity="0.3"/>
  <path d="M74 45c0-8 6-12 14-10s12 8 10 16-6 12-14 10-10-8-10-16z" fill="#e2e8f0" opacity="0.3"/>
  
  <!-- Gear overlay -->
  <g transform="translate(64,80)">
    <circle r="12" fill="#48bb78" stroke="#2d3748" stroke-width="1.5"/>
    <circle r="6" fill="#2d3748"/>
    <path d="M0,-12l2,-6l-4,0z M12,0l6,-2l0,4z M0,12l-2,6l4,0z M-12,0l-6,2l0,-4z" fill="#48bb78"/>
  </g>
  
  <!-- Title text -->
  <text x="64" y="118" font-family="Arial, sans-serif" font-size="10" font-weight="bold" 
        text-anchor="middle" fill="#2d3748">Branestawm</text>
</svg>